<svg width="80" height="80" viewBox="0 0 80 80" fill="none" xmlns="http://www.w3.org/2000/svg">
<path d="M65.5495 43.941L63.8175 43.8487L43.6617 22.3027L43.7431 62.8499H41.7959L41.7134 20.1288H44.41L63.3397 40.9612V20.3736H65.5495V43.941Z" fill="black"/>
<path d="M28.9485 45.5304C22.476 45.5304 18.9365 43.0891 18.343 38.2074H21.1372C21.3464 39.7006 22.0686 40.8662 23.337 41.7164C24.5942 42.5552 26.457 42.9808 28.9364 42.9808C30.1354 42.9808 31.1945 42.8603 32.1028 42.6098C33.011 42.3698 33.7674 42.0431 34.3608 41.6185C34.9664 41.2042 35.42 40.7137 35.7117 40.1365C36.0024 39.5594 36.1542 38.9484 36.1542 38.2837C36.1542 37.619 36.0376 37.0635 35.7931 36.5947C35.5608 36.1258 35.1293 35.7012 34.5007 35.3086C33.872 34.9273 33.0221 34.5676 31.9398 34.208C30.8575 33.8596 29.4715 33.4783 27.7837 33.0744C26.3514 32.7364 25.071 32.3881 23.9535 32.0284C22.8361 31.6575 21.9047 31.2112 21.1362 30.6877C20.3798 30.1539 19.7974 29.5109 19.4132 28.7483C19.029 27.996 18.8308 27.0479 18.8308 25.9257C18.8308 24.9446 19.0521 24.0512 19.4947 23.2556C19.9373 22.4601 20.5538 21.785 21.3575 21.2286C22.1491 20.6731 23.1157 20.2485 24.2563 19.9538C25.3969 19.6591 26.6542 19.5066 28.0392 19.5066C31.1824 19.5066 33.5572 19.9971 35.1866 20.9885C36.8161 21.9686 37.7133 23.5268 37.8994 25.6526H35.1052C34.9191 24.4212 34.2904 23.5164 33.2192 22.928C32.137 22.3508 30.5296 22.0562 28.3993 22.0562C27.3985 22.0562 26.4792 22.1437 25.6403 22.3066C24.8025 22.4808 24.0803 22.7312 23.4748 23.0579C22.8813 23.3959 22.4036 23.8102 22.0666 24.311C21.7286 24.8119 21.5546 25.3787 21.5546 26.0217C21.5546 26.3814 21.625 26.7627 21.7638 27.144C21.8926 27.5253 22.2416 27.9179 22.7998 28.3208C23.3591 28.7351 24.1969 29.138 25.3144 29.5523C26.4319 29.9779 27.9567 30.4025 29.8889 30.8497C31.4138 31.2093 32.7415 31.5906 33.87 31.9832C34.9995 32.3758 35.9309 32.8447 36.6753 33.3889C37.4085 33.9331 37.9678 34.5657 38.3288 35.285C38.6899 36.0147 38.876 36.8649 38.876 37.8346C38.876 38.9239 38.6437 39.9379 38.178 40.886C37.7123 41.8341 37.0484 42.6513 36.1985 43.3273C35.3486 44.0033 34.3005 44.5474 33.0784 44.94C31.8443 45.3326 30.4703 45.5285 28.9455 45.5285L28.9485 45.5304Z" fill="#FF0F16"/>
<path d="M37.8562 0.057251H35.4985V25.6065H37.8562V0.057251Z" fill="#FF0F16"/>
<path fill-rule="evenodd" clip-rule="evenodd" d="M33.9505 0.379235C18.2555 3.30821 6.42798 16.2716 6.42798 31.8232C6.42798 50.1258 24.2613 65.4052 43.7432 64.5984C43.7593 64.0627 43.711 62.85 43.7422 62.3482L42.6318 62.3171C24.4092 63.0647 8.66393 48.9141 8.66393 31.8232C8.66393 17.2122 19.718 5.35314 34.0179 2.5023C33.8931 1.9327 33.8921 0.989324 33.9505 0.378296V0.379235Z" fill="black"/>
<path fill-rule="evenodd" clip-rule="evenodd" d="M46.9077 63.9233C63.6487 60.9943 75.8625 48.0262 76.2668 32.4794C76.7476 13.9828 57.0233 -1.04716 35.4985 0.0572125C35.5408 0.639054 35.4985 1.52029 35.4985 2.01269L37.648 1.98539C45.2993 1.6907 52.313 3.95028 58.2826 7.54395C67.4769 13.079 73.882 22.1164 73.882 32.4794C73.882 47.0904 62.0906 58.9494 46.8372 61.8002C46.971 62.3698 46.971 63.3132 46.9087 63.9242L46.9077 63.9233Z" fill="#FF0F16"/>
<path d="M5.04397 73.2628C4.84079 73.2628 4.64868 73.244 4.46662 73.2082C4.28457 73.1715 4.11559 73.1179 3.95767 73.0463C3.80076 72.9729 3.65291 72.8834 3.51611 72.7752L3.82591 72.4089C3.99388 72.5464 4.17996 72.6499 4.38314 72.7177C4.58631 72.7865 4.80559 72.8203 5.04397 72.8203C5.3779 72.8203 5.6364 72.7601 5.81845 72.6405C6.00152 72.52 6.09204 72.3515 6.09204 72.134V72.1312C6.09204 71.9862 6.05181 71.8713 5.97034 71.7866C5.88886 71.7009 5.78426 71.6388 5.65551 71.5955C5.52676 71.5531 5.36181 71.5136 5.15863 71.4797C5.1526 71.4778 5.14656 71.4768 5.13952 71.4759C5.13248 71.475 5.12645 71.4731 5.12041 71.4712L5.05604 71.4608C4.76636 71.4119 4.533 71.3592 4.35698 71.3017C4.17996 71.2452 4.02808 71.1445 3.90235 71.0004C3.77662 70.8573 3.71426 70.6549 3.71426 70.3941V70.3913C3.71426 70.1474 3.7726 69.9394 3.88928 69.7661C4.00595 69.5939 4.17694 69.4611 4.40124 69.3717C4.62554 69.2813 4.89511 69.2361 5.21094 69.2361C5.3608 69.2361 5.50967 69.2521 5.65451 69.2822C5.80136 69.3133 5.94418 69.3585 6.08701 69.4197C6.22883 69.4799 6.36864 69.5571 6.50544 69.6494L6.21576 70.0204C6.04376 69.9064 5.87478 69.8217 5.70782 69.7643C5.54185 69.7078 5.37589 69.6786 5.21094 69.6786C4.89511 69.6786 4.65069 69.7388 4.47568 69.8603C4.30066 69.9817 4.21315 70.154 4.21315 70.3762V70.3791C4.21315 70.5203 4.25741 70.6323 4.34592 70.7142C4.43544 70.7952 4.54608 70.8564 4.67684 70.8959C4.8086 70.9345 4.98965 70.976 5.21898 71.0193C5.22703 71.0212 5.23508 71.023 5.24312 71.023C5.25117 71.024 5.25921 71.0259 5.26927 71.0277C5.27933 71.0296 5.28939 71.0315 5.30045 71.0343C5.31252 71.0372 5.32258 71.04 5.33264 71.0419C5.59315 71.0899 5.8094 71.1473 5.9824 71.2142C6.15541 71.2801 6.30025 71.3846 6.41592 71.5277C6.53159 71.6727 6.58993 71.8676 6.58993 72.1152V72.1208C6.58993 72.3609 6.52958 72.5661 6.40787 72.7375C6.28516 72.9088 6.10914 73.0388 5.8788 73.1282C5.64746 73.2177 5.36885 73.2628 5.04296 73.2628H5.04397Z" fill="white"/>
<path d="M12.8481 69.2776H13.344V73.2224H12.8481V70.0505L12.8833 70.2247L11.7306 72.6735H11.3766L10.2229 70.2784L10.2601 70.0505V73.2224H9.76123V69.2776H10.2571L11.5536 72.0041L12.8481 69.2776Z" fill="white"/>
<path d="M17.8663 69.2776H18.3702L19.9242 73.2224H19.373L18.1177 69.8641L16.8634 73.2224H16.3123L17.8663 69.2776ZM17.0284 71.8657H19.2453V72.3111H17.0284V71.8657Z" fill="white"/>
<path d="M23.207 71.1088H24.6443C24.7801 71.1088 24.8988 71.0796 25.0014 71.0212C25.103 70.9638 25.1824 70.8819 25.2388 70.7764C25.2941 70.6719 25.3243 70.5505 25.3263 70.4139C25.3263 70.2765 25.2981 70.155 25.2428 70.0496C25.1865 69.9432 25.107 69.8622 25.0044 69.8048C24.9018 69.7483 24.7831 69.7191 24.6453 69.7191H23.208V69.2738H24.6222C24.8656 69.2738 25.0798 69.3209 25.2649 69.415C25.449 69.5082 25.5928 69.6419 25.6934 69.8152C25.796 69.9875 25.8463 70.187 25.8463 70.413C25.8463 70.639 25.796 70.8386 25.6934 71.0109C25.5928 71.1832 25.449 71.3159 25.2629 71.411C25.0778 71.5051 24.8646 71.5522 24.6222 71.5522H23.208V71.1078L23.207 71.1088ZM22.9485 69.2747H23.4534V73.2224H22.9485V69.2747ZM24.4562 71.4317L24.943 71.3074L26.0213 73.2224H25.4208L24.4562 71.4317Z" fill="white"/>
<path d="M29.8606 69.5186H30.3656V73.2215H29.8606V69.5186ZM28.6255 69.2766H31.5997V69.7219H28.6255V69.2766Z" fill="white"/>
<path d="M37.9868 69.2776H38.4656L40.7207 72.5794L40.598 72.5606V69.2776H41.0999V73.2196H40.6161L38.3409 69.9253L38.4877 69.9686V73.2196H37.9868V69.2776Z" fill="white"/>
<path d="M44.5308 69.2776H45.0357V73.2224H44.5308V69.2776ZM44.8174 72.7781H47.2385V73.2224H44.8174V72.7781ZM44.8174 71.0419H46.9186V71.4863H44.8174V71.0419ZM44.8174 69.2776H47.2385V69.7229H44.8174V69.2776Z" fill="white"/>
<path d="M51.2366 69.5186H51.7415V73.2215H51.2366V69.5186ZM50.0015 69.2766H52.9757V69.7219H50.0015V69.2766Z" fill="white"/>
<path d="M57.9928 69.2776H58.3408L59.233 72.5191L60.0507 69.2776H60.5928L59.5065 73.2224H58.9895L58.1849 70.2897L57.343 73.2224H56.828L55.7407 69.2776H56.2829L57.1006 72.5191L57.9928 69.2776Z" fill="white"/>
<path d="M64.925 73.2628C64.6212 73.2628 64.3587 73.2034 64.1364 73.0867C63.9141 72.969 63.7431 72.8005 63.6224 72.583C63.5027 72.3655 63.4424 72.1066 63.4424 71.8091V70.6915C63.4424 70.3922 63.5027 70.1342 63.6224 69.9158C63.7421 69.6964 63.9131 69.5288 64.1364 69.4121C64.3577 69.2953 64.6212 69.2369 64.925 69.2369C65.2277 69.2369 65.4913 69.2953 65.7145 69.4121C65.9368 69.5288 66.1078 69.6964 66.2265 69.9158C66.3462 70.1342 66.4056 70.3931 66.4056 70.6915V71.8091C66.4056 72.1076 66.3462 72.3655 66.2265 72.583C66.1078 72.8005 65.9368 72.969 65.7145 73.0867C65.4913 73.2034 65.2277 73.2628 64.925 73.2628ZM64.925 72.8071C65.1241 72.8071 65.2961 72.7666 65.441 72.6884C65.5878 72.6103 65.6995 72.4964 65.7779 72.3495C65.8564 72.2017 65.8956 72.0285 65.8956 71.827V70.6708C65.8956 70.4675 65.8564 70.2924 65.7779 70.1455C65.6995 69.9986 65.5878 69.8856 65.441 69.8065C65.2961 69.7275 65.1231 69.6889 64.925 69.6889C64.7258 69.6889 64.5528 69.7275 64.408 69.8065C64.2611 69.8847 64.1495 69.9986 64.073 70.1455C63.9956 70.2924 63.9574 70.4675 63.9574 70.6708V71.827C63.9574 72.0275 63.9966 72.2017 64.073 72.3495C64.1505 72.4964 64.2621 72.6094 64.408 72.6884C64.5528 72.7666 64.7258 72.8071 64.925 72.8071Z" fill="white"/>
<path d="M69.9501 71.1088H71.3875C71.5233 71.1088 71.642 71.0796 71.7446 71.0212C71.8461 70.9638 71.9256 70.8819 71.9819 70.7764C72.0372 70.6719 72.0674 70.5505 72.0694 70.4139C72.0694 70.2765 72.0413 70.155 71.9859 70.0496C71.9296 69.9432 71.8502 69.8622 71.7476 69.8048C71.645 69.7483 71.5263 69.7191 71.3885 69.7191H69.9511V69.2738H71.3654C71.6088 69.2738 71.823 69.3209 72.0081 69.415C72.1921 69.5082 72.336 69.6419 72.4366 69.8152C72.5392 69.9875 72.5894 70.187 72.5894 70.413C72.5894 70.639 72.5392 70.8386 72.4366 71.0109C72.336 71.1832 72.1921 71.3159 72.0061 71.411C71.821 71.5051 71.6078 71.5522 71.3654 71.5522H69.9511V71.1078L69.9501 71.1088ZM69.6917 69.2747H70.1966V73.2224H69.6917V69.2747ZM71.1994 71.4317L71.6862 71.3074L72.7645 73.2224H72.164L71.1994 71.4317Z" fill="white"/>
<path d="M76.2829 71.7546L78.37 69.2776H79.0016L76.3261 72.3214L76.2829 71.7546ZM75.95 69.2776H76.4549V73.2224H75.95V69.2776ZM77.2274 71.1173L77.5814 70.7124L79.1777 73.2215H78.5661L77.2264 71.1163L77.2274 71.1173Z" fill="white"/>
<path d="M2.21389 79.7807C2.01071 79.7807 1.8186 79.7618 1.63654 79.7261C1.45449 79.6893 1.28551 79.6357 1.12759 79.5641C0.970683 79.4907 0.822828 79.4013 0.686035 79.293L0.995829 78.9267C1.1638 79.0642 1.34988 79.1678 1.55306 79.2356C1.75624 79.3043 1.97551 79.3382 2.21389 79.3382C2.54782 79.3382 2.80632 79.2779 2.98838 79.1583C3.17144 79.0378 3.26196 78.8693 3.26196 78.6518V78.649C3.26196 78.504 3.22173 78.3891 3.14026 78.3044C3.05879 78.2187 2.95418 78.1566 2.82543 78.1133C2.69669 78.0709 2.53173 78.0314 2.32855 77.9975C2.32252 77.9956 2.31648 77.9947 2.30944 77.9937C2.3024 77.9928 2.29637 77.9909 2.29033 77.989L2.22596 77.9787C1.93628 77.9297 1.70293 77.877 1.52691 77.8195C1.34988 77.7631 1.198 77.6623 1.07227 77.5183C0.946544 77.3752 0.884184 77.1727 0.884184 76.9119V76.9091C0.884184 76.6653 0.942521 76.4572 1.0592 76.284C1.17587 76.1117 1.34686 75.9789 1.57116 75.8895C1.79546 75.7991 2.06503 75.7539 2.38086 75.7539C2.53073 75.7539 2.67959 75.7699 2.82443 75.8C2.97128 75.8311 3.11411 75.8763 3.25693 75.9375C3.39876 75.9978 3.53857 76.075 3.67536 76.1672L3.38568 76.5382C3.21368 76.4243 3.04471 76.3395 2.87774 76.2821C2.71178 76.2256 2.54581 76.1964 2.38086 76.1964C2.06503 76.1964 1.82061 76.2567 1.6456 76.3781C1.47058 76.4996 1.38307 76.6719 1.38307 76.8941V76.8969C1.38307 77.0381 1.42733 77.1501 1.51584 77.2321C1.60536 77.313 1.716 77.3742 1.84676 77.4138C1.97853 77.4524 2.15957 77.4938 2.3889 77.5371C2.39695 77.539 2.405 77.5409 2.41304 77.5409C2.42109 77.5418 2.42914 77.5437 2.43919 77.5456C2.44925 77.5474 2.45931 77.5493 2.47037 77.5522C2.48244 77.555 2.4925 77.5578 2.50256 77.5597C2.76307 77.6077 2.97932 77.6651 3.15233 77.732C3.32533 77.7979 3.47017 77.9024 3.58584 78.0455C3.70151 78.1905 3.75985 78.3854 3.75985 78.633V78.6386C3.75985 78.8787 3.6995 79.084 3.57779 79.2553C3.45508 79.4267 3.27906 79.5566 3.04873 79.646C2.81739 79.7355 2.53877 79.7807 2.21288 79.7807H2.21389Z" fill="black"/>
<path d="M10.018 75.7953H10.5139V79.7401H10.018V76.5682L10.0532 76.7424L8.90057 79.1912H8.54651L7.39283 76.7961L7.43005 76.5682V79.7401H6.93115V75.7953H7.42703L8.72354 78.5218L10.018 75.7953Z" fill="black"/>
<path d="M15.0362 75.7953H15.5401L17.0941 79.7401H16.5429L15.2876 76.3818L14.0334 79.7401H13.4822L15.0362 75.7953ZM14.1983 78.3834H16.4152V78.8288H14.1983V78.3834Z" fill="black"/>
<path d="M20.3769 77.6265H21.8142C21.95 77.6265 22.0687 77.5973 22.1713 77.5389C22.2729 77.4815 22.3524 77.3996 22.4087 77.2941C22.464 77.1896 22.4942 77.0682 22.4962 76.9316C22.4962 76.7942 22.468 76.6727 22.4127 76.5673C22.3564 76.4609 22.2769 76.3799 22.1743 76.3225C22.0717 76.266 21.953 76.2368 21.8152 76.2368H20.3779V75.7915H21.7921C22.0355 75.7915 22.2498 75.8386 22.4348 75.9327C22.6189 76.0259 22.7627 76.1596 22.8633 76.3329C22.9659 76.5052 23.0162 76.7047 23.0162 76.9307C23.0162 77.1567 22.9659 77.3563 22.8633 77.5286C22.7627 77.7009 22.6189 77.8336 22.4328 77.9287C22.2477 78.0228 22.0345 78.0699 21.7921 78.0699H20.3779V77.6255L20.3769 77.6265ZM20.1184 75.7924H20.6233V79.7401H20.1184V75.7924ZM21.6261 77.9494L22.113 77.8251L23.1912 79.7401H22.5907L21.6261 77.9494Z" fill="black"/>
<path d="M27.0306 76.0363H27.5355V79.7392H27.0306V76.0363ZM25.7954 75.7943H28.7696V76.2396H25.7954V75.7943Z" fill="black"/>
<path d="M35.1567 75.7953H35.6355L37.8906 79.0971L37.7679 79.0783V75.7953H38.2698V79.7373H37.786L35.5108 76.443L35.6576 76.4863V79.7373H35.1567V75.7953Z" fill="black"/>
<path d="M41.7007 75.7953H42.2056V79.7401H41.7007V75.7953ZM41.9873 79.2958H44.4084V79.7401H41.9873V79.2958ZM41.9873 77.5596H44.0885V78.004H41.9873V77.5596ZM41.9873 75.7953H44.4084V76.2406H41.9873V75.7953Z" fill="black"/>
<path d="M48.4065 76.0363H48.9115V79.7392H48.4065V76.0363ZM47.1714 75.7943H50.1456V76.2396H47.1714V75.7943Z" fill="black"/>
<path d="M55.1627 75.7953H55.5107L56.4029 79.0368L57.2206 75.7953H57.7628L56.6765 79.7401H56.1595L55.3548 76.8074L54.5129 79.7401H53.9979L52.9106 75.7953H53.4528L54.2705 79.0368L55.1627 75.7953Z" fill="black"/>
<path d="M62.0949 79.7806C61.7911 79.7806 61.5286 79.7213 61.3063 79.6045C61.084 79.4868 60.9131 79.3183 60.7924 79.1008C60.6727 78.8833 60.6123 78.6244 60.6123 78.3269V77.2094C60.6123 76.91 60.6727 76.652 60.7924 76.4336C60.912 76.2142 61.083 76.0466 61.3063 75.9299C61.5276 75.8131 61.7911 75.7548 62.0949 75.7548C62.3977 75.7548 62.6612 75.8131 62.8845 75.9299C63.1068 76.0466 63.2777 76.2142 63.3964 76.4336C63.5161 76.652 63.5755 76.9109 63.5755 77.2094V78.3269C63.5755 78.6254 63.5161 78.8833 63.3964 79.1008C63.2777 79.3183 63.1068 79.4868 62.8845 79.6045C62.6612 79.7213 62.3977 79.7806 62.0949 79.7806ZM62.0949 79.3249C62.294 79.3249 62.466 79.2844 62.6109 79.2063C62.7577 79.1281 62.8694 79.0142 62.9478 78.8673C63.0263 78.7195 63.0655 78.5463 63.0655 78.3448V77.1887C63.0655 76.9853 63.0263 76.8102 62.9478 76.6633C62.8694 76.5164 62.7577 76.4035 62.6109 76.3244C62.466 76.2453 62.293 76.2067 62.0949 76.2067C61.8957 76.2067 61.7227 76.2453 61.5779 76.3244C61.431 76.4025 61.3194 76.5164 61.243 76.6633C61.1655 76.8102 61.1273 76.9853 61.1273 77.1887V78.3448C61.1273 78.5453 61.1665 78.7195 61.243 78.8673C61.3204 79.0142 61.4321 79.1272 61.5779 79.2063C61.7227 79.2844 61.8957 79.3249 62.0949 79.3249Z" fill="black"/>
<path d="M67.1201 77.6265H68.5574C68.6932 77.6265 68.8119 77.5973 68.9145 77.5389C69.0161 77.4815 69.0955 77.3996 69.1518 77.2941C69.2072 77.1896 69.2373 77.0682 69.2394 76.9316C69.2394 76.7942 69.2112 76.6727 69.1559 76.5673C69.0995 76.4609 69.0201 76.3799 68.9175 76.3225C68.8149 76.266 68.6962 76.2368 68.5584 76.2368H67.1211V75.7915H68.5353C68.7787 75.7915 68.9929 75.8386 69.178 75.9327C69.3621 76.0259 69.5059 76.1596 69.6065 76.3329C69.7091 76.5052 69.7594 76.7047 69.7594 76.9307C69.7594 77.1567 69.7091 77.3563 69.6065 77.5286C69.5059 77.7009 69.3621 77.8336 69.176 77.9287C68.9909 78.0228 68.7777 78.0699 68.5353 78.0699H67.1211V77.6255L67.1201 77.6265ZM66.8616 75.7924H67.3665V79.7401H66.8616V75.7924ZM68.3693 77.9494L68.8561 77.8251L69.9344 79.7401H69.3339L68.3693 77.9494Z" fill="black"/>
<path d="M73.4528 78.2723L75.5399 75.7953H76.1716L73.4961 78.8391L73.4528 78.2723ZM73.1199 75.7953H73.6248V79.7401H73.1199V75.7953ZM74.3973 77.635L74.7513 77.2301L76.3476 79.7392H75.736L74.3963 77.634L74.3973 77.635Z" fill="black"/>
</svg>
